Simulation
nRows=44
nColumns=15
endheader
time  TH_x TH_y TH_z SC_y  SC_z  SC_x  AC_y  AC_z  AC_x  GH_y  GH_z  GH_yy  EL_x  PS_y
0.0  0.000000  0.000000  0.000000  -40.97484877243665  6.2938575664631875  5.29042796272695  47.28814254877418  1.2686347535863143  1.539606101360646  -49.588121172880044  1.2396200069397898  71.77677283201274  22.614127676539788  120.000000
0.05745  0.000000  0.000000  0.000000  -40.35910537828462  5.468580638256395  2.867926225860393  46.77648148265976  2.4643568212765325  2.001255733906195  -28.2597701605594  3.154375373712083  50.269813349206075  22.035232459609826  120.000000
0.1149  0.000000  0.000000  0.000000  -39.77472169774638  4.538878073486411  0.6302109856881647  46.3460209539222  3.491766228530769  2.4713125247390866  -21.308860377863077  5.058575899302742  43.099396359459426  21.638620864300563  120.000000
0.17235  0.000000  0.000000  0.000000  -39.26369685949378  3.616960256884388  -1.4005436152511752  46.01230481170228  4.34514316924402  2.93552066719821  -16.559173611054785  6.942893341203976  38.046950062665644  21.501232821682475  120.000000
0.2298  0.000000  0.000000  0.000000  -38.8700425488387  2.7661231578302967  -3.2185231570233737  45.76259511953575  5.048151869349791  3.404790231589693  -12.780062445326342  8.906490583707658  33.83690838359399  21.62731943946897  120.000000
0.28725  0.000000  0.000000  0.000000  -38.60765372775051  2.039587355033949  -4.815933962758011  45.58336265820428  5.65256310090335  3.8857255852291868  -9.82236118897334  11.060470314996612  30.2773499939795  21.955352061  120.000000
0.3447  0.000000  0.000000  0.000000  -38.490582387001524  1.480899271521322  -6.184682305540629  45.457606412649724  6.214705648749265  4.378252278926731  -7.6357634312112745  13.494653264312161  27.278177151108174  22.386020080575815  120.000000
0.40215  0.000000  0.000000  0.000000  -38.52972021288348  1.1119897262150684  -7.312580723828727  45.371684221775574  6.774221190203598  4.875718705751839  -6.114318661281348  16.268923512221004  24.70364878382423  22.809596873577686  120.000000
0.4596  0.000000  0.000000  0.000000  -38.73250162785436  0.9449472621851042  -8.167893432917257  45.32331396156431  7.326317593170767  5.353648205561576  -5.109387863338115  19.405303973826676  22.39265454001081  23.134311679307274  120.000000
0.51705  0.000000  0.000000  0.000000  -39.092339277410886  0.9846472493005747  -8.743034109398444  45.314265656964906  7.85153241281656  5.808279471200321  -4.488064521861808  22.8846496220153  20.224323870020545  23.301264507160703  120.000000
0.5745  0.000000  0.000000  0.000000  -39.592614719421896  1.2208141382153144  -9.077653454600485  45.35038034726279  8.338296512923604  6.268498951336163  -4.120835037526092  26.65658024221611  18.1041651162544  23.290521880935948  120.000000
0.63195  0.000000  0.000000  0.000000  -40.210434337388904  1.622681676367625  -9.213064192697628  45.45175093480644  8.763518195265245  6.755936955286019  -3.8831731153239413  30.652285436652733  15.95890868921929  23.114387165303707  120.000000
0.6894  0.000000  0.000000  0.000000  -40.92830227548307  2.1486894762310262  -9.184108453696611  45.643552852318244  9.100954851082763  7.288905756394043  -3.659413147696723  34.79362046595689  13.725970086936952  22.801647785504972  120.000000
0.74685  0.000000  0.000000  0.000000  -41.73419751208449  2.757941304293649  -9.01722598249584  45.95517200387041  9.33174964888431  7.873583713670885  -3.359841410245576  39.00321060158023  11.36021115091159  22.387613588521805  120.000000
0.8043  0.000000  0.000000  0.000000  -42.619608219417785  3.4143499367932275  -8.72620779732792  46.405200416004966  9.449962236090983  8.505883453424254  -2.9328762489095705  43.209239712493364  8.83766512174616  21.907450112628506  120.000000
0.86175  0.000000  0.000000  0.000000  -43.5681822297966  4.089445408671312  -8.31140006024793  46.99720553969931  9.465311887901965  9.16811399126336  -2.368221507552107  47.34752104566038  6.1622224014920075  21.394761573133817  120.000000
0.9192  0.000000  0.000000  0.000000  -44.55015311359753  4.764168581761627  -7.76229735052575  47.71603283915282  9.39916080909114  9.831030787308709  -1.6865112176399946  51.358297477177885  3.3660393894585607  20.879588294914466  120.000000
0.97665  0.000000  0.000000  0.000000  -45.52674068828263  5.4265473969335  -7.061942109600822  48.52224536242461  9.27762920705088  10.460316587020067  -0.9305835636605048  55.184752021729146  0.515209129115532  20.3847760037015  120.000000
1.0341  0.000000  0.000000  0.000000  -46.460282418420974  6.078971757200782  -6.1956353753837465  49.35842801497213  9.128318492914842  11.0171385822082  -0.14992758340626322  58.773694463312374  -2.2953913820790763  19.922612862551176  120.000000
1.09155  0.000000  0.000000  0.000000  -47.32045278362529  6.727634968619419  -5.154765017289117  50.15729710333008  8.976431090191735  11.46844019745391  0.6099230213731749  62.07472351367846  -4.95177852307744  19.493679066106807  120.000000
1.149  0.000000  0.000000  0.000000  -48.087553292783696  7.374123857653312  -3.9442410844654434  50.85914023976746  8.843000503015844  11.788469595540832  1.3165616209071291  65.0387416041333  -7.342557442136822  19.093822038657944  120.000000
1.20645  0.000000  0.000000  0.000000  -48.75115753493073  8.00973383419623  -2.58797801745745  51.42492017613574  8.743157053665124  11.964570146900954  1.9516155945862457  67.62166284218655  -9.382733052748076  18.717978393738974  120.000000
1.2639  0.000000  0.000000  0.000000  -49.311912721184115  8.613907754479195  -1.1325558776618012  51.84071033559791  8.682336927230843  12.000409900195324  2.5083751082688295  69.79084805103857  -11.033418550851225  18.36471588271968  120.000000
1.32135  0.000000  0.000000  0.000000  -49.77447432970271  9.15730116169765  0.3525511980096821  52.117317069140704  8.655760833227443  11.913870258052206  2.984869898938752  71.53246892942113  -12.305900003572933  18.037654589714666  120.000000
1.3788  0.000000  0.000000  0.000000  -50.14146345408469  9.606883312993478  1.7807634316219305  52.28452911394859  8.648390056478531  11.73415751245563  3.3809646804773466  72.85319675395806  -13.25055915540679  17.744653789238505  120.000000
1.43625  0.000000  0.000000  0.000000  -50.40620398744396  9.932547467114984  3.052381481708429  52.3823918050233  8.637167426797173  11.494192997618194  3.6941348162114176  73.78019391144964  -13.934511879722216  17.494818225635406  120.000000
1.4937  0.000000  0.000000  0.000000  -50.55360133462445  10.1084359507508  4.0624261859038455  52.449644212279004  8.593538967600828  11.226263427699752  3.9183097896091117  74.35694990664888  -14.419578185349696  17.29662644937997  120.000000
1.55115  0.000000  0.000000  0.000000  -50.56188783330481  10.113202128746769  4.7048072982405715  52.51646441724742  8.486763988107954  10.955724232717365  4.0413114553421225  74.64162307181756  -14.745461923000773  17.1560250488676  120.000000
1.6086  0.000000  0.000000  0.000000  -50.41223759146517  9.93270241984299  4.8927136883850615  52.594513625397354  8.29907462436857  10.704356432392533  4.052045001938126  74.66682437370416  -14.933434191584432  17.07641185547944  120.000000
1.66605  0.000000  0.000000  0.000000  -50.099571482212134  9.567774186977111  4.582925317023202  52.66985057452168  8.048056265894695  10.495221791393531  3.9507069626797424  74.38916922632336  -15.001970830354066  17.058593273593928  120.000000
1.7235  0.000000  0.000000  0.000000  -49.62945223367937  9.027498567804296  3.7763255230280293  52.71025015146567  7.786279261813213  10.350247846413437  3.743984294756438  73.72040551425741  -14.970869444954413  17.096500393529634  120.000000
1.78095  0.000000  0.000000  0.000000  -49.011414383599536  8.32032789788954  2.5050816529099516  52.67888086513643  7.588664265846597  10.282672951498169  3.4359135021540514  72.5890292725313  -14.857361925822696  17.17411300898351  120.000000
1.8384  0.000000  0.000000  0.000000  -48.256391945403536  7.458362576391586  0.8256384824233398  52.541813368961726  7.54125736054112  10.294751008176569  3.027697098417571  70.95829114720871  -14.680235583487356  17.265729648342365  120.000000
1.89585  0.000000  0.000000  0.000000  -47.38169618035335  6.461551945291783  -1.1891709947590956  52.26934414953507  7.727143861664842  10.379816535131527  2.523409291232876  68.82266915086711  -14.462148499467087  17.342810273581225  120.000000
1.9533  0.000000  0.000000  0.000000  -46.41033050917559  5.361022065177284  -3.4603183980684817  51.83777264059426  8.211317433934804  10.527381929761306  1.9370320572434576  66.20395913858746  -14.231404314191497  17.382080962844878  120.000000
2.01075  0.000000  0.000000  0.000000  -45.37475488260092  4.197918437126074  -5.911483402358804  51.23316899472373  9.028796484154059  10.73103614625698  1.3018904995696303  63.146731829025214  -14.022670631062011  17.37321232138437  120.000000
2.0682  0.000000  0.000000  0.000000  -44.32083807391388  3.016579498526296  -8.478558260662046  50.44933275538218  10.179779173181812  10.990063454464332  0.6661770384122956  59.71018154124414  -13.873451998983176  17.31676085442793  120.000000
2.1256500000000003  0.000000  0.000000  0.000000  -43.30621260695044  1.8569882271397111  -11.110300169467783  49.49029462126029  11.630628511783835  11.31243006554719  0.09153731138021362  55.96041720729228  -13.816057044101429  17.21863337474172  120.000000
2.1831  0.000000  0.000000  0.000000  -42.38421289817729  0.7539764229069745  -13.762845232790253  48.374652534484454  13.322545428127862  11.720724470000654  -0.342915336778249  51.96630876265066  -13.870107653395095  17.08342178623655  120.000000
2.24055  0.000000  0.000000  0.000000  -41.59368339976089  -0.26121123966470605  -16.400766671197907  47.13128866831037  15.177224500753965  12.245160698797703  -0.5515297493356371  47.79758558912249  -14.02681441414006  16.905247188211117  120.000000
2.298  0.000000  0.000000  0.000000  -40.95526368260647  -1.164785005961264  -18.997840672660534  45.79230335215565  17.104804490730178  12.912951496889072  -0.46050573572263315  43.52367738050616  -14.238591642604096  16.6660726730433  120.000000
2.3554500000000003  0.000000  0.000000  0.000000  -40.46779979307013  -1.9435273092107783  -21.53230388786541  44.392137488906606  19.01674022781329  13.738921373663858  -0.023509470527115245  39.21636998529716  -14.422050875470775  16.34359579875756  120.000000
2.4129  0.000000  0.000000  0.000000  -40.113661445983475  -2.5958341769987516  -23.981365294008764  42.97087269414633  20.839838099421307  14.71829420523775  0.7690634019618029  34.95167618134911  -14.473183227317609  15.9271671365393  120.000000
2.47035  0.000000  0.000000  0.000000  -39.86429850572567  -3.130937597504025  -26.315223512429867  41.57643114939078  22.52734957769246  15.823774272947707  1.8884243889264138  30.810198670906907  -14.286860243903016  15.43195596168676  120.000000
